<svg xmlns="http://www.w3.org/2000/svg" xmlns:xlink="http://www.w3.org/1999/xlink" width="2000" zoomAndPan="magnify" viewBox="0 0 1500 1499.999933" height="2000" preserveAspectRatio="xMidYMid meet" version="1.0"><defs><g/><clipPath id="d3c31ff8af"><path d="M 73.140625 95.644531 L 860 95.644531 L 860 767 L 73.140625 767 Z M 73.140625 95.644531 " clip-rule="nonzero"/></clipPath><clipPath id="67ed618822"><path d="M 74 663 L 879.390625 663 L 879.390625 1404.394531 L 74 1404.394531 Z M 74 663 " clip-rule="nonzero"/></clipPath><clipPath id="268fea5342"><rect x="0" width="483" y="0" height="931"/></clipPath></defs><g clip-path="url(#d3c31ff8af)"><path fill="#c78a23" d="M 460.714844 766.382812 C 441.492188 766.289062 417.015625 765.660156 392.601562 763.898438 C 349.691406 760.796875 307.191406 754.972656 265.746094 742.929688 C 240.875 735.703125 216.824219 726.417969 194.3125 713.574219 C 154.160156 690.652344 122.835938 659.125 102.464844 617.285156 C 89.382812 590.414062 81.734375 561.925781 77.5 532.441406 C 73.863281 507.222656 72.667969 481.851562 73.707031 456.445312 C 74.886719 427.703125 79.515625 399.492188 88.410156 371.976562 C 99.945312 336.277344 118.347656 304.621094 142.824219 276.367188 C 143 276.164062 143.140625 275.925781 143.34375 275.785156 C 150.378906 271.21875 149.152344 265.914062 146.035156 259.164062 C 139.738281 245.5 136.921875 230.78125 135.617188 215.828125 C 132.910156 184.675781 135.300781 153.886719 142.761719 123.523438 C 144.730469 115.511719 147.453125 107.71875 150.332031 99.972656 C 151.484375 96.890625 153.183594 95.660156 156.441406 95.820312 C 170.355469 96.464844 184.050781 98.574219 197.570312 101.722656 C 234.296875 110.285156 267.933594 125.554688 298.0625 148.316406 C 306.53125 154.707031 314.652344 161.554688 321.957031 169.265625 C 324.066406 171.484375 326.175781 172.195312 329.277344 171.515625 C 353.863281 166.195312 378.703125 162.277344 403.714844 159.726562 C 417.503906 158.308594 431.371094 157.695312 445.222656 156.941406 C 462.523438 156.011719 479.792969 156.625 497.042969 157.207031 C 528.730469 158.261719 560.242188 161.253906 591.363281 167.660156 C 603.625 170.179688 603.390625 170.039062 612.945312 162.339844 C 649.730469 132.683594 690.28125 110.394531 736.839844 100.242188 C 749.136719 97.566406 761.585938 95.945312 774.210938 95.660156 C 778.175781 95.566406 780.082031 97.046875 781.453125 100.589844 C 789.449219 121.050781 795.289062 142.035156 797.773438 163.929688 C 801.191406 194.058594 799.378906 223.792969 791.492188 253.101562 C 791.054688 254.738281 790.832031 256.535156 790.03125 257.980469 C 786.597656 264.121094 788.722656 268.480469 793.164062 273.425781 C 826.753906 310.730469 845.390625 355.121094 854.316406 404.058594 C 859.558594 432.816406 860.738281 461.84375 859.605469 490.933594 C 858.09375 529.625 852.035156 567.527344 837.078125 603.574219 C 826.390625 629.359375 811.691406 652.546875 792.234375 672.695312 C 765.003906 700.886719 732.101562 719.996094 695.757812 733.660156 C 660.136719 747.054688 623.144531 754.765625 585.476562 759.503906 C 563.519531 762.257812 541.496094 764.132812 519.378906 765.046875 C 501.59375 765.785156 483.789062 766.414062 460.714844 766.414062 Z M 460.714844 766.382812 " fill-opacity="1" fill-rule="nonzero"/></g><g clip-path="url(#67ed618822)"><path fill="#c78a23" d="M 696.542969 699.328125 C 656.4375 720.011719 616.0625 740.789062 573.59375 756.324219 C 520.511719 775.734375 465.625 788.546875 409.996094 798.855469 C 365.96875 807.011719 321.21875 813.085938 279.519531 831.078125 C 269.632812 835.34375 260.597656 840.648438 254.003906 849.464844 C 242.703125 864.542969 246.621094 880.285156 263.984375 887.949219 C 275.425781 893.003906 287.546875 896.308594 300 897.191406 C 349.109375 900.621094 398.253906 899.269531 447.429688 898.308594 C 486.558594 897.539062 525.707031 897.617188 564.886719 898.449219 C 603.375 899.269531 640.980469 905.503906 678.601562 912.019531 C 715.355469 918.394531 749.984375 931.476562 782.253906 950.316406 C 832.71875 979.769531 860.707031 1024.789062 871.710938 1081.171875 C 876.464844 1105.585938 878.792969 1130.21875 879.390625 1155.167969 C 880.570312 1203.605469 862.453125 1243.632812 829.414062 1277.964844 C 791.792969 1317.050781 745.640625 1342.894531 695.820312 1362.476562 C 640.097656 1384.390625 581.902344 1395.675781 522.292969 1400.839844 C 454.828125 1406.679688 387.441406 1405.78125 320.902344 1393.914062 C 244.355469 1380.265625 175.503906 1349.523438 120.597656 1292.195312 C 72.511719 1241.980469 64.640625 1182.84375 83.78125 1119.105469 C 93.097656 1088.066406 113.988281 1062.960938 138.605469 1042.242188 C 158.914062 1025.148438 179.722656 1008.148438 204.671875 997.570312 C 207.566406 996.34375 211.800781 995.019531 211.738281 991.320312 C 211.675781 987.8125 207.269531 987.796875 204.65625 986.632812 C 191.875 980.902344 179.722656 974.257812 168.578125 965.617188 C 119.84375 927.886719 121.277344 871.34375 146.507812 830.605469 C 154.613281 817.542969 165.222656 806.773438 177.753906 797.945312 C 209.738281 775.402344 246.367188 764.917969 284.117188 757.441406 C 298.597656 754.578125 313.125 751.917969 327.640625 749.164062 C 327.765625 748.390625 327.875 747.621094 328 746.863281 C 314.574219 742.394531 301.382812 736.949219 287.671875 733.640625 C 237.253906 721.492188 194.722656 695.644531 154.160156 663.957031 M 447.789062 998.816406 C 414.96875 999.695312 369.496094 1000.941406 324.003906 1002.121094 C 318.085938 1002.277344 312.703125 1004.121094 307.507812 1006.730469 C 283.359375 1018.949219 266.125 1038.007812 253.199219 1061.351562 C 232.078125 1099.523438 226.125 1140.859375 229.132812 1183.582031 C 231.808594 1221.675781 245.203125 1255.488281 273.710938 1282.261719 C 297.699219 1304.789062 324.980469 1321.726562 356.226562 1332.445312 C 406.234375 1349.601562 457.613281 1353.757812 509.761719 1348.011719 C 544.09375 1344.234375 578.597656 1339.78125 610.441406 1324.984375 C 648.753906 1307.179688 682.472656 1283.867188 703.25 1245.460938 C 721.492188 1211.757812 723.445312 1175.460938 720.488281 1138.515625 C 718.847656 1118.003906 712.394531 1098.894531 700.449219 1081.753906 C 676.929688 1048.035156 643.8125 1028.390625 605.183594 1017.390625 C 557.945312 1003.914062 509.589844 997.996094 447.773438 998.816406 Z M 447.789062 998.816406 " fill-opacity="1" fill-rule="nonzero"/></g><g transform="matrix(1, 0, 0, 1, 948, 43)"><g clip-path="url(#268fea5342)"><g fill="#c78a23" fill-opacity="1"><g transform="translate(0.446905, 739.513547)"><g><path d="M 273.890625 -160.578125 L 273.890625 -0.671875 L 205.171875 -0.671875 L 205.171875 -160.578125 L 44.59375 -160.578125 L 44.59375 -229.296875 L 205.171875 -229.296875 L 205.171875 -389.875 L 273.890625 -389.875 L 273.890625 -229.296875 L 433.796875 -229.296875 L 433.796875 -160.578125 Z M 273.890625 -160.578125 "/></g></g></g></g></g></svg>