<svg xmlns="http://www.w3.org/2000/svg" xmlns:xlink="http://www.w3.org/1999/xlink" width="2000" zoomAndPan="magnify" viewBox="0 0 1500 1499.999933" height="2000" preserveAspectRatio="xMidYMid meet" version="1.0"><defs><g/><clipPath id="5b7e750f0f"><path d="M 22.449219 22.449219 L 1477.550781 22.449219 L 1477.550781 1477.550781 L 22.449219 1477.550781 Z M 22.449219 22.449219 " clip-rule="nonzero"/></clipPath><clipPath id="d7b2969a51"><path d="M 750 22.449219 C 348.183594 22.449219 22.449219 348.183594 22.449219 750 C 22.449219 1151.816406 348.183594 1477.550781 750 1477.550781 C 1151.816406 1477.550781 1477.550781 1151.816406 1477.550781 750 C 1477.550781 348.183594 1151.816406 22.449219 750 22.449219 Z M 750 22.449219 " clip-rule="nonzero"/></clipPath><clipPath id="9b9582b20e"><path d="M 0.449219 0.449219 L 1455.550781 0.449219 L 1455.550781 1455.550781 L 0.449219 1455.550781 Z M 0.449219 0.449219 " clip-rule="nonzero"/></clipPath><clipPath id="747d30b42a"><path d="M 728 0.449219 C 326.183594 0.449219 0.449219 326.183594 0.449219 728 C 0.449219 1129.816406 326.183594 1455.550781 728 1455.550781 C 1129.816406 1455.550781 1455.550781 1129.816406 1455.550781 728 C 1455.550781 326.183594 1129.816406 0.449219 728 0.449219 Z M 728 0.449219 " clip-rule="nonzero"/></clipPath><clipPath id="74314e549f"><rect x="0" width="1456" y="0" height="1456"/></clipPath><clipPath id="f5df9b4a44"><path d="M 268.738281 284.738281 L 829 284.738281 L 829 762 L 268.738281 762 Z M 268.738281 284.738281 " clip-rule="nonzero"/></clipPath><clipPath id="82ebc5183b"><path d="M 269 688 L 842.488281 688 L 842.488281 1215.488281 L 269 1215.488281 Z M 269 688 " clip-rule="nonzero"/></clipPath><clipPath id="fd8d86b643"><rect x="0" width="344" y="0" height="662"/></clipPath></defs><g clip-path="url(#5b7e750f0f)"><g clip-path="url(#d7b2969a51)"><g transform="matrix(1, 0, 0, 1, 22, 22)"><g clip-path="url(#74314e549f)"><g clip-path="url(#9b9582b20e)"><g clip-path="url(#747d30b42a)"><path fill="#2f6946" d="M 0.449219 0.449219 L 1455.550781 0.449219 L 1455.550781 1455.550781 L 0.449219 1455.550781 Z M 0.449219 0.449219 " fill-opacity="1" fill-rule="nonzero"/></g></g></g></g></g></g><g clip-path="url(#f5df9b4a44)"><path fill="#c78a23" d="M 544.3125 761.648438 C 530.648438 761.582031 513.242188 761.132812 495.882812 759.878906 C 465.375 757.675781 435.15625 753.53125 405.6875 744.972656 C 388.003906 739.832031 370.902344 733.230469 354.898438 724.097656 C 326.34375 707.800781 304.074219 685.382812 289.589844 655.636719 C 280.289062 636.53125 274.851562 616.273438 271.839844 595.308594 C 269.253906 577.378906 268.402344 559.339844 269.140625 541.273438 C 269.980469 520.835938 273.273438 500.78125 279.597656 481.21875 C 287.800781 455.832031 300.882812 433.324219 318.289062 413.234375 C 318.410156 413.089844 318.511719 412.921875 318.65625 412.820312 C 323.660156 409.574219 322.785156 405.804688 320.570312 401.003906 C 316.09375 391.289062 314.089844 380.824219 313.160156 370.191406 C 311.234375 348.042969 312.9375 326.148438 318.242188 304.558594 C 319.640625 298.863281 321.578125 293.324219 323.625 287.816406 C 324.441406 285.621094 325.652344 284.75 327.96875 284.863281 C 337.863281 285.320312 347.597656 286.820312 357.214844 289.058594 C 383.324219 295.148438 407.242188 306.003906 428.664062 322.1875 C 434.683594 326.730469 440.460938 331.601562 445.652344 337.085938 C 447.152344 338.664062 448.652344 339.167969 450.859375 338.683594 C 468.339844 334.902344 486 332.113281 503.785156 330.300781 C 513.589844 329.292969 523.449219 328.859375 533.300781 328.320312 C 545.601562 327.660156 557.878906 328.097656 570.144531 328.511719 C 592.675781 329.261719 615.082031 331.386719 637.207031 335.941406 C 645.925781 337.734375 645.757812 337.632812 652.550781 332.160156 C 678.707031 311.074219 707.539062 295.226562 740.644531 288.007812 C 749.386719 286.105469 758.238281 284.953125 767.214844 284.75 C 770.035156 284.683594 771.390625 285.734375 772.363281 288.253906 C 778.050781 302.804688 782.203125 317.722656 783.96875 333.289062 C 786.398438 354.710938 785.113281 375.855469 779.503906 396.695312 C 779.191406 397.859375 779.035156 399.132812 778.464844 400.164062 C 776.023438 404.527344 777.535156 407.628906 780.691406 411.144531 C 804.574219 437.667969 817.828125 469.230469 824.171875 504.027344 C 827.898438 524.472656 828.738281 545.113281 827.933594 565.796875 C 826.859375 593.304688 822.550781 620.257812 811.917969 645.886719 C 804.316406 664.21875 793.863281 680.707031 780.03125 695.03125 C 760.667969 715.078125 737.277344 728.664062 711.433594 738.378906 C 686.105469 747.902344 659.804688 753.386719 633.023438 756.757812 C 617.410156 758.714844 601.75 760.046875 586.027344 760.695312 C 573.378906 761.222656 560.71875 761.667969 544.3125 761.667969 Z M 544.3125 761.648438 " fill-opacity="1" fill-rule="nonzero"/></g><g clip-path="url(#82ebc5183b)"><path fill="#c78a23" d="M 711.992188 713.96875 C 683.476562 728.675781 654.769531 743.449219 624.570312 754.496094 C 586.832031 768.296875 547.804688 777.40625 508.25 784.738281 C 476.945312 790.535156 445.128906 794.855469 415.480469 807.648438 C 408.449219 810.679688 402.027344 814.453125 397.335938 820.71875 C 389.300781 831.441406 392.089844 842.632812 404.433594 848.085938 C 412.570312 851.675781 421.1875 854.027344 430.039062 854.652344 C 464.960938 857.09375 499.902344 856.132812 534.867188 855.449219 C 562.691406 854.898438 590.523438 854.957031 618.382812 855.550781 C 645.746094 856.132812 672.484375 860.5625 699.234375 865.195312 C 725.367188 869.730469 749.992188 879.03125 772.933594 892.425781 C 808.816406 913.367188 828.714844 945.378906 836.539062 985.46875 C 839.917969 1002.828125 841.574219 1020.34375 842 1038.082031 C 842.839844 1072.519531 829.957031 1100.980469 806.464844 1125.390625 C 779.71875 1153.183594 746.902344 1171.558594 711.480469 1185.484375 C 671.859375 1201.0625 630.480469 1209.085938 588.097656 1212.757812 C 540.125 1216.910156 492.214844 1216.273438 444.902344 1207.832031 C 390.476562 1198.128906 341.523438 1176.273438 302.484375 1135.511719 C 268.292969 1099.808594 262.695312 1057.757812 276.304688 1012.441406 C 282.929688 990.371094 297.78125 972.519531 315.289062 957.789062 C 329.726562 945.636719 344.523438 933.546875 362.261719 926.027344 C 364.320312 925.152344 367.332031 924.214844 367.285156 921.582031 C 367.242188 919.085938 364.109375 919.078125 362.25 918.246094 C 353.160156 914.175781 344.523438 909.449219 336.597656 903.304688 C 301.945312 876.480469 302.964844 836.277344 320.90625 807.3125 C 326.671875 798.023438 334.214844 790.367188 343.121094 784.085938 C 365.863281 768.0625 391.910156 760.605469 418.746094 755.289062 C 429.042969 753.253906 439.375 751.363281 449.695312 749.402344 C 449.785156 748.855469 449.863281 748.304688 449.953125 747.769531 C 440.40625 744.589844 431.027344 740.71875 421.277344 738.367188 C 385.429688 729.726562 355.1875 711.351562 326.34375 688.820312 M 535.125 926.910156 C 511.789062 927.539062 479.453125 928.421875 447.109375 929.261719 C 442.902344 929.371094 439.074219 930.683594 435.378906 932.539062 C 418.210938 941.226562 405.957031 954.777344 396.765625 971.378906 C 381.746094 998.519531 377.515625 1027.910156 379.652344 1058.285156 C 381.554688 1085.371094 391.082031 1109.410156 411.351562 1128.449219 C 428.40625 1144.464844 447.800781 1156.507812 470.019531 1164.128906 C 505.578125 1176.328125 542.109375 1179.28125 579.1875 1175.199219 C 603.597656 1172.511719 628.128906 1169.34375 650.773438 1158.824219 C 678.015625 1146.164062 701.988281 1129.589844 716.761719 1102.28125 C 729.734375 1078.316406 731.121094 1052.507812 729.015625 1026.242188 C 727.851562 1011.65625 723.265625 998.070312 714.769531 985.882812 C 698.046875 961.910156 674.5 947.941406 647.035156 940.117188 C 613.445312 930.535156 579.0625 926.328125 535.113281 926.910156 Z M 535.125 926.910156 " fill-opacity="1" fill-rule="nonzero"/></g><g transform="matrix(1, 0, 0, 1, 890, 247)"><g clip-path="url(#fd8d86b643)"><g fill="#c78a23" fill-opacity="1"><g transform="translate(1.100386, 526.117923)"><g><path d="M 194.734375 -114.171875 L 194.734375 -0.484375 L 145.875 -0.484375 L 145.875 -114.171875 L 31.703125 -114.171875 L 31.703125 -163.03125 L 145.875 -163.03125 L 145.875 -277.203125 L 194.734375 -277.203125 L 194.734375 -163.03125 L 308.4375 -163.03125 L 308.4375 -114.171875 Z M 194.734375 -114.171875 "/></g></g></g></g></g></svg>